<svg xmlns="http://www.w3.org/2000/svg" xmlns:xlink="http://www.w3.org/1999/xlink" width="350" height="69" viewBox="0 0 350 69"><defs><path id="6uvpc" d="M347.54 65.51c2.68 3.96 2.05 9.29 2.13 14.23-.32 6.32 1.5 14.16-4.82 18.11-3.31 2.2-8.28 2.36-11.84.69-6.94-2.9-6.31-10.2-6.15-16.67l.16-11.8c.23-3.19 2.52-6.23 5.6-7.75 4.9-2.44 11.6-1.22 14.92 3.2zm-11.06 2.74a4.85 4.85 0 0 0-2.05 2.28l-.07 19.03c.15.91.47 1.82 1.34 2.36a4.2 4.2 0 0 0 4.41.3 3.68 3.68 0 0 0 1.9-2.74l-.09-17.5a4.1 4.1 0 0 0-1.42-3.35c-1.02-.68-2.75-.68-4.02-.38z"/><path id="6uvpd" d="M374.37 66.27a11.77 11.77 0 0 1 1.66 5.48c.24 6.01.4 11.95.08 18.26-.4 3.73-2.92 7.61-6.71 8.98-3.79 1.6-8.6.77-11.84-1.52-2.05-2.13-4.02-4.56-4.02-7.53l-.32-18.11c0-4.11 2.45-8.22 6.47-9.67a11.9 11.9 0 0 1 14.68 4.11zm-8.53 2.06c-1.26-.3-2.76-.15-3.7.68a4.1 4.1 0 0 0-1.43 2.74l.4 17.88c.16.92.47 1.83 1.34 2.52 1.1.76 2.76.68 4.1.3a3.78 3.78 0 0 0 2.13-2.82c.16-6.16 0-12.32-.23-18.49l-.48-1.21a4.07 4.07 0 0 0-2.13-1.6z"/><path id="6uvpa" d="M103.05 43.26h51.62v56.68h-51.62z"/><path id="6uvpf" d="M152.8 65.82c1.19 1.68 1.43 3.73 1.66 5.79-.4 6.92 1.03 14.53-.55 21.15-1.42 3.27-4.26 6.4-8.05 7-4.82.76-9.47-.84-12.31-4.49a12.22 12.22 0 0 1-1.82-5.93l.08-18.72c.55-3.35 2.68-6.7 5.92-8.3 5.05-2.28 11.84-1.06 15.08 3.5zm-12.15 3.27c-1.03.76-1.34 1.83-1.42 2.97v16.9c.08 1.06.4 1.98 1.03 2.81a4.78 4.78 0 0 0 4.81.61c1.74-.83 1.97-2.59 2.13-4.26V73.51c-.08-1.68-.08-3.35-1.5-4.5-1.42-.98-3.7-1.06-5.05.08z"/><path id="6uvpg" d="M127.23 49.84c1.18 2.89.95 6.24 1.1 9.43h-8.04c-.24-2.73.31-6.77-3.08-7.83a4.9 4.9 0 0 0-4.74 1.29 5.79 5.79 0 0 0-1.02 3.58l.07 32.18c.16 1.45 1.27 2.52 2.6 3.05 1.43.53 3.09.23 4.2-.61 3.15-2.59 1.41-7 2.12-10.58l7.97.08c-.31 5.25 1.19 11.8-3.23 15.75-2.76 2.59-6.24 4.03-10.26 3.58-4.42-.54-9.32-2.67-10.9-7.16-1.18-2.5-.94-5.55-1.02-8.29V55.17c.4-3.96 1.9-7.84 5.76-10.05 4.1-2.44 10.58-2.59 14.6.23a12.57 12.57 0 0 1 3.87 4.49"/><path id="6uvph" d="M186.27 60.03l8.68.08c.64.38-.15 2.36 1.27 1.52a10.05 10.05 0 0 1 8.36-1.75c2.3.69 4.66 2.51 5.92 4.64.95 1.9 1.42 4.04 1.5 6.17l.16 21.45c1.1.46 2.53.23 3.71.38l-2.21 6.85-.87.22c-2.68-.07-5.92 0-8.76-.07l-.16-30.05a4.85 4.85 0 0 0-2.05-2.28 4.49 4.49 0 0 0-4.9 1.14c-1.1.99-1.26 2.43-1.18 3.88v27.08c-2.6.38-5.44.08-7.89.08l-.08-2.74-.08-28.84-3.08-.07s1.1-6.16 1.66-7.69"/><path id="6uvpi" d="M236.08 68.56c-2.21.3-4.58 0-6.8.3v30.66l-8.04.07-.16-.6-.08-30.2-6.7-.08 2.28-7.91 21.47.07-1.97 7.69"/><path id="6uvpj" d="M165.91 65.74l-.16 23.52a4.03 4.03 0 0 0 2.21 3.43c1.66.45 3.87.38 4.98-.92.79-.76 1.1-1.9 1.18-2.96l.16-27.71c2.45-.3 5.13 0 7.66-.08l.08 3.35-.08 21.4c-.32 3.34-.4 6.92-2.37 9.66-2.21 3.5-6.16 5.17-10.34 4.95-3.95-.3-7.74-2.06-9.8-5.56-1.1-1.83-1.26-4.11-1.34-6.24l-.08-22.46.08-5.02c2.69 0 5.06-.3 7.74 0l.08 4.64"/><path id="6uvpb" d="M239.94 43.2h83.7V112h-83.7z"/><path id="6uvpl" d="M250.36 61.56c.24.53 0 1.6.4 2.13a10.98 10.98 0 0 1 7.89-2.06c-.47 2.44-1.1 4.8-1.82 7.16-1.97.3-4.5.15-5.29 2.43l-.47 2.28-.08 25.2c.08.22.08.6 0 .9-2.6-.07-5.37.08-7.73-.22l-.08-30.52-3.24-.15 1.82-7.23c2.76.08 5.84 0 8.6.08"/><path id="6uvpm" d="M261.02 61.56l8.76.07.24 27.24c.23 1.76 1.34 3.58 3.31 3.96a4.06 4.06 0 0 0 4.1-1.75l.48-1.67.08-26.86.07-.76 7.35-.16.15.23.08 37.36c.08 3.28-.55 7.16-3.31 9.74-4.34 4.42-12.16 3.2-17.37 1.45a36.4 36.4 0 0 1 2.3-6.4c2.2 1.23 5.36 1.91 7.88.85.87-.46 2.06-.69 2.53-1.75.47-1.45.24-3.35.16-4.8-2.45 1.3-5.76 2.13-8.6 1-3.64-1.76-6.72-5.26-6.8-9.22l-.07-21.15h-3.63l2.29-7.38"/><path id="6uvpn" d="M321.1 48.4c2.21 3.04 2.3 7.37 2.13 10.95l-7.97-.08c-.55-2.5.32-6.16-2.68-7.53a4.93 4.93 0 0 0-3.32-.3c-4.97 2.05-2.53 7.99-3.16 12.17l.24 22.83a4.62 4.62 0 0 0 2.45 4.72c1.42.76 3.55.53 4.81-.46 2.92-2.43 1.58-6.77 1.9-10.2l7.97-.07c.16 6.09 1.26 12.78-4.42 16.66-3.32 2.67-8.52 3.28-12.7 1.83-3.88-1.67-7.82-5.02-8.06-9.51l-.24-8.52V53.1c.48-3.5 2.85-6.85 6.24-8.37 5.52-3.12 13.34-1.3 16.81 3.65"/><path id="6uvpo" d="M413.05 68.8h7.34v-7.78h-7.34z"/><path id="6uvpp" d="M420.39 73.8v25.35c-2.37.45-4.9.07-7.27.38l-.23-.3V80.57c-1.26-.23-2.45-.15-3.63-.23.4-2.28 1.02-4.64 1.66-6.85 2.84-.07 6.23-.07 9.07 0l.4.3"/><path id="6uvpq" d="M378.87 74.8l.4-2.51h1.89c.08-3.35.08-7.46 0-10.89 2.52-.38 5.29-.3 7.97-.38l-.08 11.65.4.23c2.76-.15 6.62.84 7.65-2.28.4-3.05.08-6.32.24-9.37 2.6-.23 5.13-.23 7.81-.23-.31 4.34.8 8.9-1.02 12.72l-2.06 2.5c.48.7 1.35 1.23 1.74 1.99 2.05 4.03 1.26 8.75 1.58 13.47-.08.23.16.3.4.3l2.92.08a54.4 54.4 0 0 1-1.98 7l-.47.3-8.84-.15-.08-17.35c-1.66-2.74-5.29-2.06-8.13-2.06v19.34c-2.53.15-5.21.07-7.81 0-.16-6.32-.08-12.87-.08-19.41h-3.16l.7-4.95"/><path id="6uvpr" d="M424.1 60.26h8.44c.4.46.08 1.14.32 1.68.79 0 1.34-.92 2.13-1.22 2.68-1.14 6.47-1.6 9.08 0a11.1 11.1 0 0 1 3.7 3.88c1.11 2.05 1.43 4.18 1.5 6.62l.48 20.84c.95.23 2.05 0 3.08.16l-1.74 7.22-9.23-.07-.08-.61-.32-28.91a4.2 4.2 0 0 0-2.53-2.74c-1.65-.46-3.55-.08-4.57 1.3l-.71 1.36c-.32 9.51-.08 19.7-.16 29.44l-.08.16h-7.26l-.16-31.27h-4.1l2.2-7.84"/><clipPath id="6uvpe"><use xlink:href="#6uvpa"/></clipPath><clipPath id="6uvpk"><use xlink:href="#6uvpb"/></clipPath></defs><g><g transform="translate(-103 -43)"><g><use fill="#992528" xlink:href="#6uvpc"/></g><g><use fill="#992528" xlink:href="#6uvpd"/></g><g><g/><g clip-path="url(#6uvpe)"><use fill="#992528" xlink:href="#6uvpf"/></g><g clip-path="url(#6uvpe)"><use fill="#992528" xlink:href="#6uvpg"/></g></g><g><use fill="#992528" xlink:href="#6uvph"/></g><g><use fill="#992528" xlink:href="#6uvpi"/></g><g><use fill="#992528" xlink:href="#6uvpj"/></g><g><g/><g clip-path="url(#6uvpk)"><use fill="#992528" xlink:href="#6uvpl"/></g><g clip-path="url(#6uvpk)"><use fill="#992528" xlink:href="#6uvpm"/></g><g clip-path="url(#6uvpk)"><use fill="#992528" xlink:href="#6uvpn"/></g></g><g><use fill="#992528" xlink:href="#6uvpo"/></g><g><use fill="#992528" xlink:href="#6uvpp"/></g><g><use fill="#992528" xlink:href="#6uvpq"/></g><g><use fill="#992528" xlink:href="#6uvpr"/></g></g></g></svg>