<?xml version="1.0" encoding="UTF-8" standalone="no"?>
<svg id="svg4136" xmlns:rdf="http://www.w3.org/1999/02/22-rdf-syntax-ns#" xmlns="http://www.w3.org/2000/svg" version="1.0" preserveAspectRatio="xMidYMid meet" xmlns:cc="http://creativecommons.org/ns#" xmlns:dc="http://purl.org/dc/elements/1.1/" viewBox="0 0 11310 11310">
 <metadata id="metadata4197">
  <rdf:RDF>
   <cc:Work rdf:about="">
    <dc:format>image/svg+xml</dc:format>
    <dc:type rdf:resource="http://purl.org/dc/dcmitype/StillImage"/>
    <dc:title/>
   </cc:Work>
  </rdf:RDF>
 </metadata>
 <g id="layer101" fill="#fff">
  <path id="path4139" d="m5930 11102c-117-59-133-71-166-126-34-56-47-89-64-153l-11-43h-50c-36 0-60-6-82-22-61-41-109-102-131-166-12-34-12-46 0-83 18-54 33-86 57-120 14-20 20-49 22-113l4-86-37-19c-20-10-51-22-69-25-17-4-35-15-39-24s-13-80-20-157c-50.063-325.11-54.304-635.95-111-951l-8-42-40 18c-243.46 106.14-445.34 167.52-675 236-224.65 53.012-444.35 85.335-670 129-234 41-286 46-549 50-249 4-283 3-380-16-58-12-112-26-118-31-21-17-15-40 26-98 73-102 168-308 231-496 89.987-228.4 121.93-414.07 160-646 43.466-170.67 70.98-379.7 92-494 11-7 10-389-1-428-14.388-89.131-36.694-169.7-60.536-255.14-5.5669 133.6 7.6311 217.6 9.2118 248.42 3.0503 59.47 8.7347 110.05 14.324 172.72 4 43 5 106 1 140l-7 64-46 18c-71 28-101 41-175 75-138.56 55.568-267.69 152.71-357 243-93 96-109 108-139 108h-34l6-99c3-55 10-108 16-118 37.551-189.05 88.644-390.2 111-568 80.871-405.92 157.3-899.14 208-1309 62.667-470.86 76.464-863.87 239-1328 96.072-261.87 231.82-527.3 369-738 70-106 118-164 229-276 188-189 246-240 362-316 309.9-201.38 564.77-273.33 938-409 476.89-85.274 865.45-191.75 1431.2-60 294.36 73.672 458.38 124.56 713.84 279.3 77 49 350 252.77 400 299.77 222 204 240 215.93 306 313.93 83.414 128.94 172.08 269.5 235 398 68.091 165.29 134.63 348.7 199 515 29.796 129.55 67.164 242.15 85 360 12.232 97.839 16 154 11 335-5 218-23 421-38 436-5 4-8 17-8 29-58.68 195.24-155.01 450.79-230 555-72.534 131.33-205.16 324.86-273.54 481.46-81.529 199.42-134.26 356.84-157.04 507.43-24.401 161.27-13.737 319.27-12.262 541.65 3 61 11.839 117.46 7.8388 128.46-9 30-50 27-71-4-71.887-73.449-161.19-172.59-249-240-124-95-230-154-273-153-44 0-40.022-1.6517-84.955 154.46-30.434 104.02 134.37 199.32 112.96 248.54-10.922 24.898-153.01 508.48-303.23 1015.5-102.2 344.8-198.6 701.7-296.8 927.5 0 6-19 12-42 14-33 2-44 8-46 22-2 10 3 23 12 28 32 18 22 39-78 171-65 87-61 60-36 247 10 78 10 88-8 125l-20 40 24 29c76 89 92 196 50 328-14 46-29 88-33 93-5 6-33 27-64 47-54 35-107 55-167 63-15 2-38 6-52 9-17 4-48-6-100-32zm175.12-183c35-13 65.625-72.625 57.625-125.62-3-24-18.75-46.375-23.75-48.375-13-8 47-78 105-123 16-12 26-25 22-29s-10-3-14 3c-23 35-161 52-210 25-11-6-34-35-51-66-17-30-36-55-41-55-13 0-13 17 0 22 5 2 23 41 40 87 30 86 29 111-6 111-8 0-26.161 24.269-38.161 48.269-23.681 38.557-14.663 53.392 1.3436 93.201 32 68 78.942 86.53 157.94 57.53zm-455.1-195c0-3-13-22-29-42-48-62-71-132-71-214 0-65-1-70-14-52-19 27-39 103-37 139 3 46 39 112 79 145 32 27 72 40 72 24zm158-139.25c20.534-20.477 47.335-44.215 73.675-67.147 7.1539-6.229 17.318-14.106 18.825-23.853-1.541-1.541-0.9024-4.85-8.6206-2.63-33.791 9.723-116.63 79.729-146.95 132.03-6.8579 11.83-21.798 36.88-33.589 60.182-14.71 29.071-19.619 57.79-5.7168 59.921 8.1848 1.255 10.273-13.605 16.455-29.662 21.676-46.398 46.508-89.052 85.92-128.84zm292 0.25c0-3-5-15-12-28-25-49-28-58-28-92 0-43 25-117 56-167 26-41 28-48 16-48-10 0-83 113-100 153-21 49-15 116 14 154 21 28 54 45 54 28zm-132-143c1-38 45-124 97-190l45-57v-105c0-132 5-149 41-157 25-5 29-10 29-41 0-27-8-43-36-70-34-33-35-37-29-80 24.416-108.81 66.041-213.34 92-322 73.049-261.69 152.86-478.45 213-725 83.774-265.98 143.11-558.24 219.98-781.42 26.9-56.6 51.5-95.1 51.5-95.1l181.28-56.666c3.7762-4.0991 52.276-151.75 57.44-183.65 0.9662-5.9694-71.731-4.287-106.22-5.1863-54-1-115-7-134-12-228-62-292-73-388-69-76 4-112 11-165 33-175 71-320 203-477 432-50 72-158 173-186 173-11 0-14 21-14 115 0 79 4 117 13 125 6 5 24 19 40 31 15 11 27 29 27 40 0 30 31 119 41 119 5 0 32 23 59 50 38 38 50 58 50 81 44.533 325.68 90.793 730.91 110 944 16.956 139.84 38.255 269.55 52 402 10 28 9 33-18 57-16 15-41 33-56 41-25 14-28 21-28 64 0 84 9 110 44 125 38 16 80 63 108 122 18 39 22 42 42 32 15-6 23-19 24-36zm-419.13-228.27c-4.3314-27.031-10.528-0.939-12.16 69.871-0.5271 22.871-1.6282 47.169 2.6416 61.523 3.9426 13.253 11.122 17.656 12.082 8.054 2-21-0.5644-116.45-2.5644-139.45zm65.534 141.78c-10.315 2.407-12.322 21.56 4.3779 20.586 23.586 0.838 86.074-2.191 110.65-26.597 4.7542-5.645-1.675-21.222-11.023-16.473-34.999 17.78-61.737 20.811-104 22.484zm89.826-184.38c-72.833-6.441-51.168 7.858-102.08 9.796-27.911 3.242-44.942-19.245-52.951-8.117-16.204 22.514 37.777 31.167 52.012 31.167 14.575-2.419 20.048-5.609 36.278-9.058 30.027-6.383 38.424 3.821 75.72-5.694 9.9404-4.622-0.3061-18.013-8.984-18.094zm465.8-78c0-54-4-83-10-79-5 3-10 42-10 86 0 46 4 79 10 79s10-35 10-86zm-690.04-92.626c-52.8-352.8-67.2-667.2-124-999-14-89-23-106-45-92-12 7-13 22-3 97 7 48 16 138 22 198 36.277 252.02 54.896 509.5 91 755 11 77 23 104 43 97 7-3 17.955-15.626 15.955-55.626zm900.86 20.341c-4.9593-2.888-7.2234-7.03-20.514-7.712-6.8916-0.353-12.14 5.822-19.553 7.153-15.038 2.699-31.146 4.921-46.75 2.844-32.891-4.916-112.2-51.885-128.07-62.671-4.038-2.7441-14.063 0.5502-13.015 6.0797 10.108 19.387 33.038 33.384 56.953 49.776 37.648 17.373 113.87 45.602 170.01 27.983 15.654-6.272 25.484-19.181 0.9439-23.453zm-144-84c4-19-0.7565-30.861-7.7565-26.861-5 3-11.547 22.198-11.547 36.198 0 25.685 8.7457 34.143 14.671 14.475 1.4568-4.8353 2.856-16.313 4.632-23.812zm138.91-39.312c-16-2-59.781-4.25-70.781-9.25-13.851-4.4178-36.676-11.334-54.391-18.712-10.056-4.1879-16.135-9.7954-23.795-12.014-12.229-3.5417-20.974-0.3122-16.398 3.5545 7.7041 6.5103 22.604 21.078 46.45 31.876 32.993 14.938 76.296 21.49 99.54 25.108 32 0 46.375-16.562 19.375-20.562zm-88.8-199.7c99.842-292.39 166.58-609.88 247-893 58.056-200.07 119.41-413.79 172-590 25-84 37-143 31-160-9-22-47-19-47 3-52.884 224.35-119.9 395.95-175 601-98.908 327.28-184.72 682.76-266 979-9 33-9 45 1 57 15 18 25 19 37 3zm-2919-543 64.375 81.5 66-2.875c76.5-4.125 65.75-11.5 23.625-45.625-9-7-29-29-44-48s-38-48-52-64c-19-21-23-33-16-40 6-6 59-12 119-14l108-4 57 58c31 32 56 60 56 63s8 15 18 26c16 19 22 20 81 10l65-10-77-78c-42-42-77-79-77-80 0-3 47-13 184-37l50-8 59 51c32 28 66 62 76 76l18 24 77-13c42-8 76-19 76-25s-15-22-32-35c-57-42-118-102-118-116 0-8 10-14 23-14 25 0 133-32 143-43 11-11 52-8 59 3 3 6 48 42 100 80l94 70 53-12c29-6 57-15 61-18 8-7-161-144-186-153-15-5 0-36 20-43 10-4 45-19 79-35 33-16 70-29 82-29 13 0 76 41 143 91l120 91 52-19c50-19 74-43 43-43-8 0-19-6-23-14-7-13-86-84-147-131-14-11-25-27-26-36 0-18 30-41 70-54 14-4 39-18 56-31 40-31 61-30 108 6 22 17 42 30 45 30s7-24 8-52c1-29 5-75 8-102l7-50-23 16c-81.512 50.646-134.13 67.328-210 121-138.62 61.934-329.57 130.6-484 182-35 5-101 21-175 41-204.88 44.827-403.72 71.104-607 89-71 5-135 4-208-5-58-7-105-13-105-14s6-24 14-53c9.7383-29.499 8.7356-59.234 21-83 17-19 20-19 36-4 10 9 21 25 24 35 9 26 25 24 23-3-1-13 2-49 6-80l7-58h-32-32l7-57c4-32 10-71 12-88 3-16 8-53 10-82 4-38 4.0625-46.062 17.062-50.062 29.5 4.8 22.9-19.9 20.9-63.9-1-30-5-190-8-356-3-183-9-310-15-322 4-24.75-5.75-71.5-5.75-100.5-1-44-11.75-19.75-20.25 74.5-7 55-20 150-28 210-11.62 108.21-25.109 146.26-30 208-35.221 234.36-84.554 460.13-121 662-37.289 191.94-93.599 417.82-188 583-14.045 25.91-0.3483 35.258 37.652 35.258 34 0 50.652-14.839 88.826-62.694 81.5-134.6 105.5-130.6 193.5-35.6zm-146.9 68.503c-10.677 15.142 3.5406 34.96 18.127 24.747 8.8684-6.2094 3.3773-30.669-18.127-24.747zm384.9-67.5c-41-60-63-82-73-73-6 7 99 137 106 131 2-2-13-29-33-58zm394 5c0-16-84-111-98-111-9 0 7 25 39 59 60 65 59 64 59 52zm362-133c-28-29-84.074-89.632-97.498-81.27-14.7 6.1 58.5 63.3 86.5 92.3 28 28 54 49 57 46s-17-29-46-57zm380-110c-28-29-118.6-113-129.2-105.3-19.2 10.9 87.2 90.3 117.2 117.3s57 46 60 44c2-3-19-28-48-56zm-1037-139c44-5 109-12 145-15 230.53-32.286 482.2-71.615 610-128 47-14 94-30 105-35 11-6 43-17 70-26 28-9 77-29 110-45 33-15 78-35 100-45 22-9 47-20 55-25s47-25 85-45c39-21 93-54 120-75l50-37 23-104c20.692-94.434 44.758-189.86 62-284 25-125 28-141 43-190 8-27 26-84 41-125 14-41 40-122 57-179 34.34-122.64 90.344-244.59 140-344 51-105 60-130 48-138-216.86-54.179-433.47-150.56-613-288-67.875-47.954-124.78-98.995-187-156-38-35-119-125-138-152-70.683-59.172-111.25-144.83-151-199-51.05-95.979-96.321-166.73-127.19-266.94 0-10-6.8125-17.062-12.812-17.062-5 0-10 8-10 19-19.17 65.018-46.831 128.56-70 186-13 33-41 88-62 123-46.923 80.754-98.624 169.55-177 222-53.311 40.399-100.9 65.82-146 93-47 28-100 59-118 68-116.65 33.991-247.99 73.386-363 79h-94v29c25.763 63.048 48.092 133.66 75 189 70.067 166 116.93 343.22 137 522 7.4784 53.957 15.014 110.83 23 157.25 53.342 304.57 56.89 631.31 34 910.75 0 37-4 87-9 112-4 25-13 74-20 110-6 36-15 73-21 82-19 36-12 41 49 34 31-4 93-11 137-17zm1340-45c-36-36-68-64-71-62-5 5 121 128 131 128 3 0-24-30-60-66zm581.42-18.361c12.941-13.063 6.9924-42.008-23.664-25.758-142.79 99.028-264.74 65.821-303.9 49.558-20.132-5.9448-23.798 19.878-17.518 24.72 63.892 44.285 212.82 31.521 345.08-48.519zm-82.25-114.61c13.074-11.66 1.9698-31.043-16.461-19.671-71.8 39.585-128.17 52.62-197.69 30.26-10.406-5.8596-32.186 14.502-9.2942 24.7 73.063 37.842 150.65 25.015 223.45-35.289zm-264.2-33c0-16 7-45 15-65 8-19 15-44 15-54s8-26 18-36c15-16 17-37 12-217-4-147-8-200-17-204-9-2-13 6-13 25 0 16-8 60-19 98-31 119-42 204-44 362-2 144-1 151 16 136 9-9 17-29 17-45zm182.83-87.373c18.359-22.136-1.9046-28.107-8.4291-28.492-18.208 12.013-63.148 15.228-85.924 2.6005-7.1079-3.7848-26.684 9.0291-5.862 28.107 13 15 71.215 13.784 100.21-2.2156zm-76.924-601.59c-23.4-66.9-17.8 112-16.8 241 0.9891 129-8.8801 268.38 13.88 242.63 17.166-52.472 2.3297-419.26 2.9673-483.59zm179.1 58c22-24 60-72 85-107 69-99 244-268 342-333 86-57 122-70 233-88 63-11 227-3 254 11 9 5 63 21 121 36 82 22 134 29 238 31 124 4 132 3 132-15 0-10-24-42-54-70-40-36-57-60-62-86-3-20-10-39-15-42-12-7-11-181 1-189 6-3 10-14 10-23 0-22 82-103 135-133 34-19 54-23 136-23 108 0 148 14 203 69s68 90 72 189c2 66-1 98-13 120-17 33-83 119-95 124-5 2-26 18-47 36-36 30-43 32-105 30-36-1-66 2-66 7 0 15 128 10 181-7 51-17 143-90 160-128 6-12 19-37 29-56 11-19 24-51 29-70 15-51 16-258 3-306-16-54-63-117-111-150-39-25-43-26-184-22-114 2-149 6-163 19-32.565 25.557-68.708 37.307-104 59-186.41 88.812-355.41 152.69-548.46 165-169.25 21.75-528.79 15-612.54-3l-67-7-49 75c-57 86-93 153-93 173 0 8-11 40-25 71-29 65-30 76-11 76 17 0 86 64 110 102 26 40 25 171-2 223-32 63-93 117-128 113l-29-3-3 103-3 103 38-16c21-8 56-35 78-58zm1123.6-49.626c-6 6 117.4 160.22 346.28 112.66 10.604-11.996 6.3038-19.798-10.661-16.952-173.88 29.17-228.95-45.926-324.71-102.49-1.0594-0.6258-12.561 0.6384-10.913 6.7799zm194.12-31.049-127.98 36.313 90.921 52.338zm-1328.7-166.4c31-46 43-112 32-173-8-45-60-97-96-97-24 0-29 5-34 35-6 31-3 38 29 66 31 28 35 36 35 82 0 31-6 57-15 68-18 19-10 72 9 66 6-2 24-23 40-47zm1964-169c-2-109 10.794-236.77 6.7938-234.77-4 3-32.794 63.775-42.794 86.775-27 60-98 128-160 152l-62.25 18.75 92.5 60c47 30 108 71.25 128 88.25 20 18 39.5 39.25 41.5 39.25s-1.75-101.25-3.75-210.25zm-2084 154.09c-4-3-12.308 4.5831-16.308 7.5831-1.1613 1.5484 9.535 12.908 14.598 28.272 4.4075 13.376-1.0521 32.992 1.8671 44.38 2.39 9.3238 16.572 17.094 18.503 17.094 3.4127 0-2.3755-28.241-3.0426-51.493-0.3616-12.606-0.7707-26.612-2.6626-35.765-1.7762-8.5933-12.21-9.0765-12.955-10.069zm1498 137.59c5.8962 1.4204 10.86-6.8472 8.0837-10.969-3.1923-4.7389-23.153-17.228-35.571-22.396-17.403-8.8-18.268 3.4685-16.896 7.5966 2.9683 8.9284 32.021 22.854 44.383 25.768zm165.46-589.04c-24.954 19.169-191.05 502.96-192.88 519.65-1.3225 8.4425 16.4 15.545 19.392 6.8462 30.525-88.718 169.95-486.84 185.15-523.08 0.1779-0.424 0.3388-0.9151 0.3075-1.8218-0.7277-1.8872-2.4709-3.236-4.5805-3.9797-2.0183-0.9021-5.4646 0.088-7.388 2.3819zm86.5 35.3c77-91-43-212-137-136-31 25-40 84-17 112 11 14 15 10 31-25 16-36 22-41 46-38 27 3 39.869 2.6921 37.869 58.692-0.5236 17.541-17.318 42.007-16.771 51.647 1.542 27.179 39.891 19.348 55.902-23.339zm-4069-77c19-16 20-24 12-187-4-93-11-260-16-370-14-331-21-397-43-403-20-5-24-40-9-70 5-9 14-77 19-150 13-182 15-185 148-193 54-3 142-11 194-17 244-29 752-47 835-31 49 10 63-1 41-32-81.187-209.48-79.984-558.93-48-774 6-33 14-81 18-108 26.57-125.02 80.307-245.69 129-351 42.098-91.234 133.27-254.94 198-323 89.322-108.99 174.03-192.86 283-290 131.16-93.982 238.1-167.04 369-227 54.157-29.336 125.75-53.319 171-74 280.03-91.428 635.9-159.48 981.65-97.607 65.403 6.8148 469.51 110.63 672.35 256.61 19 14 51 34 70 45 49 27 160 113 189 146 37.422 34.64 78.658 66.561 111 103 47.763 48.54 80.912 102.23 118 140 88.778 112.36 148.6 205.88 202 325 64.315 141.85 99.418 241.32 131 385 19 90 31 228 32 350 0 156-22.25 342.38-34.625 389-30.123 138.05-87.963 259.09-140.58 370.23-24.879 55.62-54.246 112.36-89.21 162.77-24.174 43.589-48.954 77.894-78.581 113-74.39 100.66-126.37 162.98-210 238-14.408 23.614-146.14 99.251-132.75 130.25 35.086 9.047 79.188 11.567 117.23 22.648 44.232 12.885 81.806 35.586 111.52 66.102 58.346 70.635 103.39 163.81 111 250 6 67 14 66 27-3 29.963-137.18 82.31-275.31 149-381 89.595-160.4 198.28-311.74 285-478 33-64 100-254 113-320 46-229 59.5-288 63.5-560 18.948-156.54-22.309-263.26-46.5-405-42.014-290.87-121.46-504.73-223-710-96.293-172.74-194-351.73-337-485-84.784-93.667-188.2-160.21-276-225.5-162.3-126.2-297.2-225.7-474.8-301.1-249.3-105.8-533.6-163.9-812.1-188.4-269.38-36.346-565.83-3.9423-795 40-260.76 65.742-375.79 131.88-695 230-254.04 139.37-408.2 215.61-618 377-246.01 209.46-390.28 416.86-527 688-92.669 221.48-203.91 476.34-235 720-41.114 328.18-83.679 592.89-130 910-45 301-187 1173-211 1297-16 82-13 103 15 93 67.702-42.911 209.21-42.617 266-93zm3737-542c35-18 74-42 88-55 14-12 39-30 56-38 99-50 370-314 450-438 119-185 224-481 224-630 0-89-55-149-137-149-23 0-45 5-48 10-3 6-17 10-31 10-13 0-50 9-81 20-32 11-63 20-69 20-22 0-44-31-44-61 0-52 16-69 63-69 23 0 59-3 79-6l37-6-5-47c-2-25-9-109-15-186-8-109-16-151-34-192-23-51-24-51-77-57-29-3-73-7-97-9-42-2-45-4-74-57-16-30-42-70-58-88s-29-37-29-42c0-6-64-75-142-153-133-133-150-146-238-189-123.57-61.884-274.08-107.46-390-119-58-5-114-12-126-14-25-5-64-88-64-137 0-64-5-68-78-68-36 0-79 4-96 9s-74 19-126 32c-52 12-102 26-110 30s-51 19-95 34c-202 68-325 150-476 319-147 165-285 410-304 541-7 54 8 71 73 77 73 7 94 29 82 83-28 122-36 396-15 493l7 32h-41c-64 0-101 23-101 63 1 91 127 335 185 357 15 6 44 5 79-2 69-15 96-4 128 51 13 23 28 41 33 41 9 0 33-11 117-52 10-4 36-8 58-8 89 0 122 63 76 143l-26 45 56 51c31 28 75 63 99 76 58 35 194 72 288 80 60 5 80 11 84 23 35.674 66.196 73.732 128.42 125 183l151-7c197-9 197-9 197-120 0-78 2-85 23-93 12-4 39-6 59-3 42 5 37-6 59 147 12 89 26 117 72 146 43 27 98 21 179-21zm-3430-74c16-2 47-7 70-11 199.76-32.89 353.35-91.061 499.5-239.5 83.45-88.761 222.71-311.66 244.25-410.73 4.4-12.8 11.7-18.8 7.2-33.8-9.3542-31.153-494-7-873 28-63 6-119 11-125 11-5 0-10 20-10 45l-1 45 56-6c30-3 66-10 80-14 48-18 247-33 461-37 233-4 249-1 234 48-8 23-287 309-302 309-5 0-24 14-42 32-28 27-41 32-94 36-34 2-66 8-72 13-5 5-32 9-60 9-29 0-55 3-59 8-13 12-90 10-118-5-33-16-36-38-8-53 16-9 18-15 10-30-5-10-10-57-10-104v-86h-26-26l5 203c3 111 9 215 13 231 7 28 8 28 63 23 31-4 68-8 83-11zm108-254c0-4-18-26-40-47-44-43-49-61-22-81 31-24 51-15 99 46 26 33 54 60 61 60 14 0-31-63-63-90-22-18-18-39 10-52 24-11 30-7 85 47 33 33 60 54 60 48s-18-29-40-51c-44-43-50-65-22-81 12-8-20-10-113-11h-131l-10 28c-15 41-4 68 56 133 52 56 70 69 70 51zm228-172c-35-42-56-53-39-21 9 16 58 60 69 61 2 0-12-18-30-40zm97-30c3-5-3-10-14-10-12 0-21 5-21 10 0 6 6 10 14 10s18-4 21-10z"/>
  <path id="path4141" d="m6012 10847c-26.79-31-22.255-51.442 1.3483-77.326 33-26 49.094-8.764 69.652-1.674 24 26 12.161 65.348-5 86-8.3449 10.393-41 20-66-7z"/>
  <path id="path4143" d="m4096 8505c-129-33-161-85-176-291-27-359-40-461-74-563-13-42-34-107-46-146-12-38-25-79-30-90s-19-45-30-75c-12-30-28-71-37-90-32-68-63-154-63-173 0-47 34-133 64-162 18-17 102-65 187-108 168-86 205-115 330-264 39-46 79-88 90-94 36-19 99 7 137 56 49 64 218 230 271 267 27 18 85 61 130 96s107 77 139 93c119 61 205 134 232 194 30 71 33 114 10 190-11 39-24 86-29 105-43 167-55 208-90 315-55 168-133 342-179 395-59 70-174 185-207 207-31 20-150 82-195 101-110 46-324 64-434 37zm280-186c147-27 266-118 336-256 75-149 102-259 102-418 0-193-58-377-164-520-146.88-177.55-279.68-326.38-502-271-77 20-101 30-216 89-124 62-182 111-182 153 0 28 32 127 99 304 66 177 100 288 116 380 8 52 22 131 30 175s16 100 19 125c12 111 28 206 34 212 15 15 129 36 198 37 39 1 97-4 130-10z"/>
  <path id="path4145" d="m4222 8237c-16-19-4-28 48-37 35-6 38-11 26-55-3-11 1-28 8-39 14-18 16-17 52 12 34 28 64 33 64 10 0-6-16-33-35-59-35-50-45-92-23-105 7-5 36 19 75 60 53 55 67 65 79 56 25-22 15-41-62-115-67-64-76-77-70-99 8-31 24-33 57-7 25 19 134 81 143 81 3 0 10-8 15-18 9-16-3-28-89-87-84-57-100-72-100-94 0-14 5-33 10-41 8-13 13-13 37 3 36 23 149 77 163 77 23 0 7-27-30-49-21-13-50-34-64-45-14-12-43-34-66-49-40-28-57-63-46-92 4-13 25-5 109 40 57 30 107 55 111 55s6-7 4-16c-2-10-57-53-122-98-100-68-121-87-132-118-18-53 4-56 77-13 19.76 8.4528 122.82 81.954 160.98 93.722 9.7442 3.0047 12.098-9.0146 7.0824-15.534 0-10-122.1-95.2-151.1-106.2-50-19-130-80-145-112-17-36-13-55 9-38 7 5 49 25 93 43 44 19 90 40 103 48 30 20 35 12 16-27s-39-49-183-95c-104-33-191-81-191-106 0-4 24-1 53 7 28 8 68 18 87 23 19 4 50 13 69 19 46 14 50 7 16-29-18-19-52-37-94-49-95-29-191-51-228-51-45 0-48-15-8-39 52-30 153-54 200-46 137 21 346 240 417 435 43 117 51 165 50 295 0 113-3 140-26 210-62 187-142 302-237 344-30 13-63 28-74 34s-54 12-95 15c-60 3-78 1-88-11z"/>
  <path id="path4147" d="m5640 7720c-13-8-12-16 10-56 34-66 32-137-9-227-17-38-40-81-50-96-10-14-20-35-22-46-6-37 24-117 57-152l34-36 82 9c170 18 610 3 763-26 33-6 105-31 159-56 71-32 102-42 110-34 6 6 11 54 12 108 1 99 9 140 47 250 22 63 22 64 3 78-29 21-130 18-222-7-142-38-248-59-301-59-90 0-240 38-318 80-112 62-175 112-220 174-47 66-88 106-109 106-6 0-18-5-26-10zm272-378c78-40 110-51 184-60 167-22 305-33 342-27 46 8 197 52 237 70 29 14 56 8 71-16 3-6 3-64-1-130-7-114-8-119-29-119-12 0-26 4-31 9-44 40-427 91-692 91-208 1-307 11-334 36-31 28-24 68 24 123 73 85 101 88 229 23z"/>
  <path id="path4149" d="m3263 5537c-7-12 23-404 47-602 11-91 28-180 45-224 7-20 21-63 30-96 34-114 87-240 161-383 89-172 113-211 173-282 175-209 291-315 494-450 101-67 383-216 522-274 22-10 49-21 60-26 11-4 47-18 80-30 33-13 69-26 80-31 11-4 43-13 70-19 267-59 273-60 355-66 41-3 129-3 196 1l120 7 12 96c18 145 16 189-9 202-22 12-169 51-263 70-33 7-92 27-130 45-39 18-96 44-126 57-86 38-196 113-361 247-139 111-221 192-284 276-55 74-232 359-270 435-35 71-101 258-118 335-24 108-47 230-57 304-30 206-42 310-41 344 3 74 27 70-398 71-211 1-385-2-388-7zm444-73 262-6 5-42c3-22 13-98 21-168 16-133 17-137 59-343 47-228 102-377 204-552 116-200 163-275 212-343 72-99 275-295 370-357 47-31 94-64 105-74 40-35 158-95 370-189 64-28 129-50 149-50 10 0 49-9 87-21l69-21v-89-89l-137 4c-129 3-191 13-353 51-36 9-83 20-105 25-48 11-142 44-152 53-3 4-12 7-19 7s-56 21-111 46c-54 25-120 55-148 66-97 38-199 97-425 247-150 99-356 313-457 476-89 143-199 401-253 595-11 41-25 89-30 105-45 151-77 394-79 614l-1 73 48-6c26-4 165-9 309-12z"/>
  <path id="path4151" d="m3559.8 5240.8c11.3-208.2 67-414.5 120.2-610.8 68.38-243.31 189.75-430.18 318.42-574.12 185.81-214 349-360.12 485-455.12 293.11-196.67 626.26-383.95 1e3 -398.58 27.517 1.226-63.319-3.0171 58.148 1.6981l9.5309 69.352c-220.73 38.148-331.48 68.985-491.4 153.65-155 68-465.7 289.35-621.12 439.35-154.9 152.9-193.5 205.7-267.5 327.7-144 240-227.42 427-260.42 611-28.71 132.09-60.606 327.97-64.419 435.17z"/>
  <path id="path4153" d="m6671 6624c-18-14-31-35-31-48 0-12-4-26-9-31-5-6-11-57-12-114-3-98-1-105 20-122 13-11 28-19 35-19 22 0 151-101 241-188 136-133 214-257 290-463 55-148 80-196 114-214 65-33 129-49 198-50 99 0 116 16 116 112 0 37-8 95-18 128-98 338-163 451-409 703-152 156-321 279-433 315-66 22-66 22-102-9zm173-49c168-86 371-272 524-481 105-144 192-345 226-523 15-76 11-120-10-128-8-3-47 11-88 31-40 20-77 36-82 36-13 0-54 43-54 57 0 11 11 13 53 8 28-4 60-11 69-16s33-9 52-9c35 0 36 1 36 40 0 23-7 55-16 72l-16 31-104-6c-82-4-106-2-115 10-17 20-2 30 56 37 86 9 130 18 136 29 8 12-6 63-22 83-16 19-52 18-144-6-58-15-81-17-91-9-8 6-11 15-8 20 6 11 73 41 127 59 49 15 61 38 42 82-26 63-36 64-117 16-40-23-79-49-87-56-12-11-16-11-29 2-20 19-10 31 74 93 74 54 81 78 35 124-33 33-69 38-78 12-6-20-103-123-114-123-4 0-11 9-14 21-5 16 8 40 54 101 69 89 70 102 15 144-33 25-35 26-53 10-11-10-34-53-52-97-18-43-36-79-40-79-3 0-12 6-18 14-9 10-3 35 24 106 44 116 44 132 0 166-47 35-60 23-75-69-6-40-17-87-24-106l-13-35-13 24c-12 23-11 58 6 210 6 53 5 56-27 79-54 40-63 25-69-119-4-110-7-121-20-106-29 36-71 234-57 271 10 24 47 18 121-20z"/>
  <path id="path4155" d="m6120 6544c-15-8-42-46-69-98l-44-86h-71c-39-1-89-7-111-15s-48-15-57-15c-61 0-240-99-253-140-4-12-1-27 6-36 6-8 12-41 13-74 1-54-2-62-33-94s-40-36-85-36c-37 1-66 9-106 30-69 37-84 37-100 1-19-47-44-64-82-57-18 3-52 9-75 12l-41 6-47-63c-80-110-126-220-109-266 8-24 17-28 76-38 37-6 69-13 72-15 2-3-2-37-9-75-28-136-29-277-5-415 32-179 36-162-43-175-38-6-73-18-78-26-32-47 38-201 182-398 63-86 249-267 324-315 66-42 160-90 210-106 22-7 45-16 50-20 26-19 324-100 369-100 35 0 41 14 42 106 1 45 5 87 8 93 5 7 44 11 104 11 109 0 322 39 380 70 27 14 90 40 96 40 16 0 148 89 204 139 84 73 292 353 292 391 0 6 3 10 8 11 121 9 193 21 197 32 49 161 66 252 63 327l-3 75-65 2c-36 1-72 2-80 2-12 1-14 14-12 68 7 125-23 251-98 424-68 154-197 323-319 417-31 24-67 52-81 63-36 30-239 126-280 133-56 10-64 18-52 57 6 19 14 55 17 81 9 60 3 62-146 77-133 13-126 13-159-5zm205-85c2-3 0-30-6-60-18-95-17-101 16-111 17-5 59-16 95-24 108-23 257-105 360-196 49-44 90-83 90-86 0-4 27-40 59-80 32-41 82-119 110-175 78-155 106-271 117-494l5-93h80 81l-7-32c-42-212-44-218-97-219-24 0-63-4-87-7-36-6-46-12-51-32-12-45-61-134-99-180-21-25-51-66-69-91-17-25-72-83-122-127-194-172-451-262-749-262h-79l-7-67c-4-38-9-71-11-74-7-12-127 10-221 41-90 30-267 115-303 146-9 7-34 26-57 41-49 33-137 116-198 187-70 83-209 326-189 333 35 13 120 63 128 75 7 11 3 38-13 90-48 158-52 184-53 296 0 126 13 214 48 313 24 71 20 89-22 89-33 0-94 28-101 47-4 9 7 43 26 79l33 63 44-4c24-3 64-7 89-10 46-5 63 4 90 48 8 13 18 14 60 6 152-29 168-26 236 38 65.13 49.756 49.537 70.826 48 150-1 57-1 104 2 106 55 43 184 94 274 107 33 5 76 12 95 15s54 8 77 11c41 5 43 7 80 81l38 75 77-4c43-3 80-7 83-9z"/>
  <path id="path4157" d="m5871.6 5970.5c-64-23-187.38-81.438-212.38-101.44-70-55-136.2-115.1-171.2-161.1-108.95-132.48-141.34-282.31-142.42-441 0-186 11.419-219 69.419-342 64.924-117.14 109.52-171.75 204-252 51-46 203-119 288-137 94-21 255-21 341 0 179.53 51.813 321.16 143.92 428 281 32 43 80 134 93 179 7 21 15 46 18 54 41.144 145.01 29.438 304.56-14.304 444.77-20.415 65.438-51.265 126.66-80.696 180.23-96.577 131.91-241.19 239.95-380 285-54 17-88.25 30.625-242.25 29.625-99 0-190.19-16.125-198.19-19.125zm236.4-174.5c4-68 2-75-18-86-36-19-50 2-50 79 0 69 5 85 30 93 26 9 35-10 38-86zm-279 32c27-28 55-103 47-123-3-10-15-15-28-13-28 4-91 112-83 139 8 25 40 24 64-3zm590-35c6-13 1-35-18-78-33-72-55-94-79-78-23 15-18 55 14 120 21 41 33 53 50 53 13 0 28-8 33-17zm-204-193c216-101 285-370 142-554-60-78-95-102-206-141-113-39-260 2-349 99-137 148-139 377-5 523 39 42 128 91 193 104 61 13 160-1 225-31zm-595-11c66-49 73-61 56-84-12-17-17-17-47-5-88 37-132 120-69 129 3 1 30-17 60-40zm1024-35c22-22 20-30-14-54-56-40-118-62-140-50-41 22-25 49 53 85 84 40 81 39 101 19zm-1050.4-252.2c19-7 21.58-21.303 18.58-37.303-4-27-32.839-32.884-92.839-23.884-37 5-65.213 15.303-65.213 34.303 0 12 11.839 31.303 15.839 34.303 10 10 93.633 3.5806 123.63-7.4194zm1122.9-60.348c5-7 7.8839-25.419 6.8839-36.419-3-23-54.303-31-117.3-18-48 10-70.419 35.768-50.419 59.768 12 15 30.303 19.536 84.303 14.536 36-4 72.536-12.884 76.536-19.884zm-1050.9-211.5c0-21-25.678-30.652-67.678-44.652-29.681-9.8937-58.758-21.074-79.748-20.218-25.684 1.0469-40.502 16.385-44.904 27.941-15 39 65.258 77.652 145.26 73.652 35-2 47.071-14.723 47.071-36.723zm914.14-55.25c47-21 53.25-50.75 25.25-74.75-12-10-26-9-70 5-63 20-96.875 52-80.875 83 13 22 54.625 17.75 125.62-13.25zm-741.62-122.88c16-19 3.625-54.875-34.375-114.88-24-37-41.625-51.125-58.625-48.125-36 5-40 65.125-3 124.12 20.112 30.797 43.155 53.049 63.674 55.594 12.128 1.5039 23.782-6.3168 32.326-16.718zm537-59.375c19.892-28.417 33.227-48.802 34.979-65.679 1.9472-18.757-9.8254-32.446-30.354-32.446-23 0-63.75 39.625-93.75 87.625-14 21-18.125 34.125-9.125 51.125 8.7279 16.486 25.107 28.025 41.348 22.145 17.253-6.2466 34.752-31.348 56.902-62.77zm-273-24.625c7-9 7.875-43.875 5.875-88.875-3-75-13.875-102.75-48.875-89.75-13 5-23.5 25.75-23.5 94.75 0 83 8.375 100.5 40.375 102.5 6 1 20.125-10.625 26.125-18.625z"/>
  <path id="path4159" d="m5990 5482c-67-25-92-46-129-107-29-47-34-66-35-118-1-53 3-68 29-107 40-60 52-73 102-104 78-48 201-32 275 37 39 36 78 120 78 166 0 103-68 200-165 234-60 21-96 21-155-1zm104-205c21-16 18-45-6-61-35-22-74 27-48 59 15 18 31 19 54 2z"/>
  <path id="path4161" d="m5257 4982c-21-23-50-190-41-230 14-56 48-107 131-193 145-151 345-263 506-285 39-6 52-1 123 40 115.17 65.913 146.82 110.1 98.248 132.96-21.436 10.089-56.36 6.7713-110.25 15.038-65 11-128 23-139 28s-49 20-84 34c-168 67-285 183-398 396-42 80-59 92-86 62zm74-163c8-16 8-28 0-46-9-20-7-29 11-54 17-23 28-29 48-24 37 8 54-8 47-43-8-41 29-77 71-68 34 8 54-10 50-44 2.2781-42.482 46.989-64.862 73.25-48.875 11 7 25.375 13.25 34.375 13.25 16 0 37.125-30.875 31.125-51.375-1.007-28.575 45.931-55.346 77.25-28 10 27 43 17 55-15 11-33 27-38 57-15 25 19 60 19 68-1 13-35-41-84-93-84-42 0-127 19-159 36-15 8-30 14-35 14-4 0-49 26-100 57-98 60-275 228-310 294-18 33-18 35 2 82 23 52 52 63 72 26z"/>
  <path id="fivePath" d="m2752 3250c-39-38-72-72-72-76 0-9 100-196 120-224 30-42 93-163 163-310 25-52 68-142 96-200s78.4-134.52 78.4-138.52c-74.389 17.18-254.08 59.785-327.4 77.516-165 42-245 63-270 71-14 5-52 16-85 26-33 9-76 25-95 34-19 10-51 19-70 22-33 5-38 2-80-51-58-72-321-341-335-342-5 0-20-13-33-29l-23-29 88-66c244-185 627-451 826-575 49-30 94-59 101-65 6-5 21-15 31-22 11-7 62-38 113-70s100-62 110-68c10-5 32-20 49-32 17-13 35-23 40-23 13 0 63 57 63 71 0 22-40 60-146 139-60 45-128 98-152 117-23 20-78 63-121 97-287 225-551 455-551 482 0 14 64 137 91 176 20 28 46 36 65 20 12-10 147-62 239-91 39-13 79-26 90-31s49-19 85-31 79-27 95-34c17-7 93-34 170-59 77-26 149-51 160-56s54-21 95-36c168-59 180-58 180 8 0 24-7 53-15 64-21 30-131 245-139 272-7 20-68 133-196 362-52 92-66 117-143 255-27 50-65 117-83 150-35 61-100 194-125 253l-14 33zm58-145c27-50 59-110 71-135 13-25 43-77 66-117 24-39 43-74 43-77s18-36 41-73c23-36 44-74 47-82 9-22 76-140 127-226 23-38 51-88 63-110 86-169 161-305 180-328 21-24 12-29-21-12-15 8-60 24-100 36-39 12-85 28-102 35-16 7-55 20-85 29s-64 21-75 25c-11 5-47 18-80 30-33 11-69 24-80 29s-36 16-57 25c-20 9-41 16-46 16-13 0-189 64-287 105-77 32-162 64-186 70-30 7-17 22-164-193-64-92-81-125-72-133 7-6 66-49 132-96 118-83 225-163 235-173 3-3 50-39 105-80 55-40 121-84.5 146-106.5 107.95-86.266 179.02-135.1 264-213.5 17-15 55-44 85-64s50-36 43-36c-6 0-44 22-85 50-180.19 115.01-387.46 257.87-518 343-200 130-544 374-604 428-10 9 3 24 134 159 36 37 100 103 143 148 62 64 82 79 95 72 40-21 93-41 148-56 202-55 290-79 379-101 55-13 109-28 120-33 15.236-6.7219 309.29-91.113 321-78 4 6 3 13-2 17-5 3-42 71-82 151s-88 174-108 210-72 135-116 220-97 184-117 220c-67 122-90 177-78 189 6 6 15 10 20 8 5-1 30-43 57-92z"/>
  <path id="fourPath" d="m7023 2515c-49-32-53-38-53-74 13.288-47.87 18.899-95.031 28-141 21-98 23-114 33-200 12-102 26-235 25-235s-71-35-156-77-211-100-280-128c-69-29-136-57-148-63-29-14-50-53-61-113l-9-45 82-38c44-21 110-48 146-61 87-30 181-65 227-85 21-9 47-21 58-25s38-15 60-23c22-9 51-19 65-22 14-4 39-12 55-20 126.23-40.563 244.37-85.983 346.98-127.91 15-3 35.022-15.094 50.022-23.094 35-19 42-18 77 12 18 15 27.375 37.125 39.5 58.125 6.75 19 10 25.75 14.375 39.375 5.875 22.875 5.125 53.5-51.875 170.5-91 189-125 268-178 426-8 25-21 59-28 75-26 63-39 94-91 225-30 74-58 144-64 155-26.572 83.935-57.237 176.5-80 250-17 55-36.438 105.38-38.438 112.38-6 17-10.562 15.625-68.562-22.375zm40-263c19-59 25-78 51-174 9-32 24-77 34-100 10-24 27-68 36-98 10-30 26-73 35-95 10-22 26-60 35-85 57-142 264.62-563.88 295.62-600.88 5.5-13.375 10.91-24.125 4.9105-43.125-10.088-13.104-9.7834-19.233-41.536-11-66.375 28-119.25 50-152 61-55 14-131.63 42.652-226 75-11 5-42 16-70 25-27 9-63 22-80 29-16 6-57 22-90 34-33 13-69 27-80 32-11 4-45 18-75 29s-64 25-75 29c-11 5-47 19-80 32-142 52-151 61-82 80 23 6 56 17 72 24 17 7 55 21 85 31 58.523 27.55 107.9 42.849 156 63 68 28 241 94 278 106 18 5 18 13 12 133-4 70-13.238 125.22-17 136-3.7624 15.488-6.5248 21-9 35-5.7454 32.496-42.334 244.75-50 276-16.917 61.588-24.875 131.75-12.875 113.75 17.467-39.884 33.875-90.264 45.875-136.75z"/>
  <path id="path4185" d="m7030 1617c-97.785-39.468-184.95-70.469-275-107-22-11-45-19-51-20-5 0-32-10-58-23-55-26-52-31 34-66 30-12 64-26 75-31 11-4 36-14 55-21 19-6 92-36 161-65 239-101 515-198 531-187 6 3 6 8 2 12-5 3-19 26-31 51-13 25-29 54-35 65-12 17-24 36-75 120-7 11-14.348 24.371-25.652 43.558-51.056 76.88-127.15 228.22-182.35 261.44-13 4-58-8-125-33zm188-97c50-75 128-203 180-294 5-9-30-1-63 15-11 5-79 31-151 58-73 27-172 68-220 91-49 23-111 52-139 65l-50 24 40 16c22 9 49 20 60 25 55 24 96 40 160 61 39 13 74 27 80 31 21 18 43-1 103-92z"/>
  <path id="path4187" d="m6940 1491c0-24 59.375-58.625 167.38-110.62 116-55 143.62-68.375 161.62-47.375 10 13 2 32-53 116-56 84-93.625 117.88-108.62 111.88-7.5614 2.2607-45.873-9.7041-85.941-23.895-39-13.9-79.9-29.7-81.4-46z"/>
  <path id="sevenPath" d="m4160 2305c-19-7-36-17-37-22-4-10 6-49 47-188 28-99 67-242 100-370 16-60 43-157 60-215 47-154 60-200 72-245 38.672-98.839 67.876-208.42 105-293 8-19 12-36 9-39-10-10-618 187-711 231-80 38-220 96-231 96-29 0-31-26-13-165 10-77 18-141 18-142 3-9 78-39 174-69 61-20 121-39 132-44 28-11 58-23 70-26 6-1 37-10 70-19s71-19 85-22 79-21 145-40 149-41 184-49 68-17 75-21c6-4 31-10 56-14 25-3 88-16 140-28 89-20 96-20 108-4 16 22 15 37-7 124-19 72-184 584-202 624-4 11-18 45-29 75s-25 64-30 75-30 79-55 150c-26 72-53 144-60 160-7 17-28 71-45 120-78 222-93 261-101 270-5 5-9 17-9 26 0 24-48 79-68 78-10-1-33-7-52-14zm30-118c0-5 6-23 14-40 8-18 26-68 40-112s47-145 74-225c28-80 71-210 97-290s53-158 60-175c28-68 75-203 75-217 0-7 4-18 8-23 5-6 19-39 31-75s26-74 31-85 19-45 30-75c12-30 26-64 30-75 5-11 13-33 18-50 6-16 13-39 18-49 10-26-10-23-251 44-44 12-89 26-100 30-11 5-54 18-95 30-77.796 19.86-170.12 46.127-216 59-32 10-77 23-99 29s-76 21-120 33c-44 11-89 24-100 29-11 4-40 14-64 22-44 14-45 15-58 78-15 78-25 160-19 160 3 0 18-19 34-42 35-50 57-76 118-140 37-38 54-48 97-56 62.408-10.556 786-212 786-212l-9 27c-28 94-62 201-70 218-5 11-18 52-30 90-21 70-25 79-53 145-8 19-18 46-22 60s-11 30-14 35c-4 6-22 57-41 115-18 58-36 114-41 125-4 11-12 40-18 65s-18 68-25 95c-8 28-26 95-40 150-15 55-30 109-35 120-18 40-71 202-71 216 1 10 5 8 15-5 8-11 15-24 15-29z"/>
  <path id="twoPath" d="m5990 2113c-51-2-252-21-470-43-52-6-171-15-265-20-233-14-235-14-264-75-38-79-34-102 21-139 198-131 713-532 808-630 30-31 37.251-29.484 71-56 16.513-12.974 46-29 33-38-5-4-13-14-19-23-19-31-173-224-222-277l-48-53-52 25c-29 14-56 26-59 26-10 0-72 29-290 136-117 57-224 106-238 110-14 3-26.5 12.562-33.562 15.688-16.688 5.125-59.312-51.25-57.75-56.812 0.7085-6.5302 38.886-38.686 56.312-53.875 53-48 181-147 285-221 42-30 129-94 192-142 64-49 122-88 129-88 8 0 50 14 94 32 71 28 86 38 122 86 23 30 87 110 142 179s107 135 115 147 27 38 43 58c43 55 76 128 69 149-13 33-129 146-370 356-130 115-258 226-284 247-26 22-45 43-43 47 3 3 25 10 49 13 25 4 80 19 123 33s96 30 118 34c40 8 156 41 185 52 8 3 26 8 40 10 46 9 236 70 259 84 1 1-7 20-20 42l-23 41-70-2c-39-1-96-3-126-5zm39.474-104.48c-30-7-155.5-33.5-194.5-43.5-38-9-81-19-95-21-96.62-41.443-226.03-46.13-320-75-19-6-57-16-83-22-27-7-48-15-48-19 1-7 182-176 241-225 14-12 46-38 71-59 26-22 64-52 85-69 174-138 327-280 353-329 13-24 9-31-80-148-100-133-297-375-341-421l-27-28-53 38c-29 21-55 40-58 43s-13 10-22 15c-57.611 34.916-334.62 214.49-401.38 265.22-9.7209 7.3874-4.4874 18.432-4.4874 19.195 0 1.2544 12.397 1.4738 25.489-6.9288 28.657-18.392 78.151-48.487 90.506-58.096 19-15 1.8651 0 43-30.663 4.8106-3.5859 58.534-31.534 119.53-70.534 112-73 208.3-133.2 228.3-133.2 13 0 100 91 195 205 37 44 88 105 114 134 72 84 112 138 112 153s-5 19-117 110c-42 34-85 71-97 82-12 12-43 39-71 61-27 22-52 43-55 46s-39 30-80 60c-41 29-106 79-145 109-82 66-263 198-347 255l-59 40 48 8c26 4 129 11 228 16s214 16 255 25c135.61 14.504 273.91 52.978 394.68 80.307 58 13 120.71 21.69 145.33 22.352 36.845 0.9901 2.4673-15.137-50.533-28.137z"/>
  <path id="path4163" d="m8422 8913c-128.23-192.5-277.78-451.51-334-643-74.052-189.99-95.666-357.7-92.5-543 0.047-178.04 47.332-430.59 109.5-572 7-16 34-82 60-145 53.296-131.13 93.463-220.11 144-344 44.904-112 79.947-199.89 121-296 97.638-235.28 173.31-573.19 192.75-802.5 12.371-126.54 32.514-306.39 13.25-452.5-4.5641-105.34-40.458-233.43-42.25-328.75-25.533-137.26-59.499-278.37-106.54-416.25-27.436-87.878-64.8-199.4-117.21-290-28.633-80.692-77.07-140.71-108-210-63.308-111.48-119.37-203.86-195-299-29-35-57-72-63-82-9-15-117-139-166-191-102.15-118.77-237.65-237.39-355-322-69.901-62.462-106.23-77.596-196.35-141.44-207.8-125.7-308.3-193.3-684.6-324.6-333.8-124.3-663.1-152.9-1018.2-165.8-151.55 5.5711-308.84 23.768-438.75 34.75-273.66 24.699-521.24 124.52-745 201-133 60.618-275.93 130.47-395 199-116.35 76.552-240.17 157.87-340 240-61.677 51.603-123.56 104.42-174 161-242.82 186.35-421.45 512.44-611 710-47.597-14.644-76.18-45.521-110-65-44.817-35.224-80.14-59.649-115-91-22-19-55-48-74-62-65.978-63.637-137.47-127.81-199-188-32-31-93-88-137-127s-97-88-117-109c-46.732-43.599-84.717-75.966-127-115-27-27-87-82-132-123-44-41-87-81-94-87-88.505-79.053-205.22-191.13-295-272-63-57-116-108-118-113-33.702-20.085-57.391-50.159-84-75-101-92-105-97-100-139 3-21 13-51 23-68 21-34 223-241 324-330 67-59 437-349 643-503 93-69 515-357 557-379 11-6 63-35 115-66 234-137 496-271 643-328 56-22 125-51 152-64 28-14 88-39 135-56 47-18 130-49 185-70 182-69 233-83 390-105 55-8 111-17 125-21 44-11 300-26 435-26 271 0 947 40 975 57 5 3 46 10 92 16 77 9 248 43 463 90 50 11 108 24 130 29s67 16 100 25 110 29 172 46c62 16 163 50 225 75 146 58 158 63 191 80 16 8 32 14 37 14 20 0 310 135 350 163 25 18 70 45 100 61 77 41 232 143 315 208 39 30 77 57 85 60 25 9 178 125 245 186 35 31 77 67 94 80 30 23 100 105 208 245 30 40 69 88 86 107 33 37 35 41 100 154 21 38 72 121 112 185 39 64 107 186 150 271s91 180 107 210c15 30 50 118 77 195s59 166 70 197c12 32 21 65 21 74 0 10 6 40 14 68s19 76 25 106 18 93 27 140 20 117 24 155c5 39 16 122 24 185 9 63 20 174 26 245 6 72 16 180 22 240 10 102 8 303-5 470-3 39-8 131-12 205-19.325 274.53-77.704 503.93-129 760-39 154-43 167-61 255-22 100-56 208-82 260-11 22-31 74-43 115-44 142-128 315-267 546-57 95-103 177-103 183 0 11-38 83-49 91-16 13-78 137-96 192-7 24-30 90-49 147-106 306-106 464-1 697 14 33 32 73 39 89 7 17 19 44 27 60 19 43 119 191 168 250 42.788 54.811 36.72 50.742-5.1249 84.875-134 114-385.9 270.1-434.9 270.1-9 0-31-17-47-37zm55.454-62.559c15.2-7.8-43.4-71.6-67.5-125.4-19-33-46-82-62-110-30-52-54-103-70-145-11-27-21-51-66-150-16-36-32-76-36-90-75-275-78-300-72-490 6-185 19-262 76-459 23-82 38-116 116-275 61.851-140.75 114.96-270.08 159-361 55-114 135-312 135-334 0-9 13-55 29-101 52-155 84-267 101-360 5-25 18-88 29-140 26-127 45-355 38-460-6-78-26-234-47-370-5-30-13-84-19-120-44-283-101-463-217-692-19-37-34-71-34-76 0-15-86-167-146-259-30-46-54-86-54-90-1-14-128-187-212-287-143-171-456-476-558-546-341-230-330-223-349-206-10 9-22 16-29 16-6 0-57-22-114-48-57-27-120-55-141-63-29-10-37-18-33-31 3-14-7-24-42-42-110.42-53.401-221.63-97.585-292-117-198-55-271-72-345-80-44-5-105-14-135-20-152-31-542-42-765-21-134 12-302 35-355 48-14 3-45 9-71 14-108 19-304 83-419 137-41 19-91 42-110 50-87 38-159 75-210 108-30 19-58 35-62 35s-37 18-73 40-69 40-73 40c-11 0-159 97-185 120-12 12-73 60-135 107-206 156-486 452-626 663-52 78-55 85-41 105 9 11 18 28 22 38 10 32 28 17 91-76 152-220 232-314 407-477 76-70 307-263 343-285 9-5 22-16 30-23 22-20 206.42-133.46 256.42-160.46 78.206-43.087 148.34-82.402 219.46-117 114-54 169.1-79.5 256.1-104.5 41-12 111-32 155-45 115-34 207-55 242-55 16 0 43-4 59-10 28-10 83-18 294-43 68-8 208-11 400-9 356 4 466 15 675 66 61 15 117 30 125 33s20 7 25 9c24 6 204 77 250 99 28 13 80 33 115 45 65 22 120 49 320 152 128 67 196 110 320 203 125 95 349 312 469 455 53 63 106 126 119 140 68 75 199 295 306 513 138 282 158 334 192 497 16 78 20 94 49 220 10 41 19 86 21 100 3 14 9 50 14 80 39 222 39 535 1 790-29.63 213.83-91.109 435.58-166.88 626.62-17.9 45.5-142.1 328.4-169.1 398.4-90.537 239.49-221.44 468.23-267 685-16 73-21 144-25 310-4 235-2 255 69 485 37 122 33 114 102 255 22.82 34.712 88.64 181.54 147.02 285.94 37.833 67.652 76.85 113.18 84.434 113.42 5.3346 2.2039 21.802 0.6012 31.997-8.9224zm339.45-188.25-62.664-11.856-258.09 141.19 22.822 36.586zm-237.66-185.73 173.6 68.482-28.027-47.959-138-62.291-244.59 72.512 14.797 37.314zm23.234-294.36-126.51-97.587-262.92 57.612 10.216 38.109 226.09-34.939 178.13 89.931zm-146.83-579.45-279.65-81.35-9.5678 49.856 268.57 66.87 109.79 159.4 6.0495-51.775zm226.54-300.29 24.61-60.727-83.458-174.36-235.63-148.52-22.519 41.89 238.59 160.98zm373.2-718.5-100.6-196.9-304.4-126.2-16.3 41.4 300.4 137.9l94.824 195.5zm236.44-658.96-115.93-184.28-363.72-132.39-13.873 56.038 346.07 121.21 132.82 215.66zm157.14-793.08-182.21-137.96-455.5-0.25 5.1421 51.874 443.61 3.3763 179.71 129.58zm-271.69-822.44 316.34 148.8 1.1584-52.283-324.43-153.75-457.59 156.6 13.496 55.74zm-6308.2-491.3c-6-13-32-48-58-78-45-52-87-109-181-241-25-35-76-101-113-146-88-109-211-273-374-503-72-102-138-192-146-200-17-18-117-150-205-272-48-66-70-88-93-93-42-9-439 6-439 16 0 5 80 10 178 10 97 1 201 2 231 3l54 1 58 85c32 47 99 137 148 200 50 63 127 166 173 229 212 290 355 480 395 526 24 28 92 116 151 196 166 227 214 289 224 289 5 0 3-10-3-22zm6212-270 355.18 141.17-6.647-55.684s-212.54-79.74-358.53-134.49c-62.472 28.592-604.39 288.8-604.39 288.8l26.786 45.392zm-6591-44c0-6-147-194-165-209-15-14-147-180-265-335-60-79-52-69-127-162-35-43-71-87-80-100-10-12-41-47-69-77-28-31-77-93-108-138l-58-83h-139c-175 0-181 6-88 93 35 34 109 104 164 156 55 53 147 139 205 191s164 151 235 220c189 181 268 255 333 310 31 26 77 69 102 94 42 42 60 54 60 40zm385-208c22-41 58-105 81-143 61-102 157-269 197-343 19-36 58-108 87-160s68-124 88-160c19-36 58-105 85-155 28-49 70-126 95-170 24-44 50-87 57-95 34-40 47-83 41-134-6-41-31-129-42-144-5-7-170 50-274 95-138.62 48.692-289.7 104.34-420 148-30 10-68 23-85 30-103 43-207 85-250 100-27 9-59 22-71 27-11 5-34 8-50 6-24-2-33-12-57-61-15-33-25-66-22-75 3-10 20-27 37-39 18-13 53-41 78-63 48-44 196-160 282-223 28-20 68-52 87-70 20-18 68-57 106-86 39-30 86-68 105-85 19-18 62-52 95-76s66-50 74-58c8-7 38-31 68-53 33-25 51-45 47-52-9-16-104-149-114-160-7-8-157 85-392 244-48 32-91 59-94 59-4 0-41 23-83 52-42 28-244 164-450 302-443 298-431 289-431 297 0 3 19 26 43 50 23 25 62 68 86 95s89 96 145 154c55 58 126 135 157 170l56 64 74-22c41-12 128-33 194-47 123-26 227-55 350-99 140-50 198-35 159 41-10 21-21 40-24 43s-13 21-24 40c-10 19-80 143-156 275s-150 266-166 297l-27 56 75 84c41 46 85 95 98 111 29 33 31 31 85-67zm5954.4-460.54 398.57 73.268-24.305-60.24-380.16-70.867-681.16 496.71 37.172 53.911zm-5411.8 91.955c87-72 345.23-260.89 352.65-263.88 10.955-4.4194 25.884-12.116 48.884-28.116 52-35 154.02-96.326 211.02-123.33 23-11 49.513-24.442 49.513-29.442 0-14-15.723-15.652-52.723 3.3483-29 15-159 91-197 114-8 5-35 22-60 37s-69 45-99 68c-29 22-74 56-100 75-149 110-233.42 176.12-342.42 287.12-68 67-195.32 212.86-187.52 217.09 13.2 7 124-125.3 192-191.3 67-67 151.65-139.58 184.65-165.58zm4998.4-829.81 434.54 48.445-50.796-61.746-410.11-33.145-806.95 740.73 46.266 32.266zm-1294.6 437.6c8-22 25.938-64.375 38.938-94.375 14-30 39.688-109.94 65.688-175.94 25-66 53.861-122.23 56.861-128.23 1.7903-6.7678 15.558-36.558 27.558-69.558 21-58 101.6-271.2 119.6-312.2 30-67 70-168 88-220 11-33 49-127 83-210 34-82 62-161 62-175s-11-49-24-77c-19-42-33-58-71-78-35-19-52-23-65-17-10 5-52 21-93 35s-127 44-190 67c-63 24-144 53-180 65-71 25-232 89-465 185-82 34-162 67-177 73-26 11-28 16-28 69 3.784 38.345 7.32 78.797 14.697 109.37 0 25 20.303 22.626 278.3 151.63 149 75 285 147 301 160l28 23-12 69c-7 39-14 88-16 110-3 22-14 108-24 190-11 83-22 164-24 180-4 31-2 33 94 75 14 6 36 17 50 25 33 20 44.375 16.312 61.375-29.688zm700.48-1066.7 491.83-30.137-37.01-39.952-500.28 19.904-566.07 1131.2 42.87 24.7zm-1001.9 908.4c0-37-273-153-435-186-27-5-53-7-57-5-18 12-5 22 35 28 42 6 211 57 252 75 80 36 155.82 79.092 166.38 89.562 15.8 15.7 38.6 15.4 38.6-1.6zm-2502-89c16-40 44-113 62-163 18-49 36-99 40-110s17-54 29-95 26-84 31-95 23-63 40-115 51-147 75-210 65-173 91-245c25-71 50-139 55-150 32-73 124-344 134-395 3-19 11-47 16-61 11-28-4-73-33-96-15-13-71-1-248 52-53 16-91 26-225 59-33 8-85 22-115 31-74 21-197 55-240 65-157 38-258 64-275 70-11 4-54 18-95 30-141 43-127 29-134 133-3 51-8 136-12 189l-6 97 28 24c32 28 33 28 170-25 176-69 250-97 309-117 33-11 98-34 145-51 250-93 230-87 246-65 8 11 12 29 9 40s-15 54-26 95-24 89-29 105c-5 17-18 66-29 110-23 85-54 195-76 260-7 22-21 67-30 100s-27 94-40 135c-12 41-30 102-40 135-15 53-37 126-64 220-26 87-25 92 16 103 21 5 72 10 115 11l76 1zm150 2c47-27 241-82 406-115 61-12 112-27 114-33 5-17-90-6-208 25-52 13-113 28-135 33-62 14-208 74-213 88-5 15 12 16 36 2zm1755-186c55-84 55-84-48-117-49-15-99-32-110-36-43-17-190-66-377-125-94-30-111-47-84-88 22-33 460-437 580-535l38-31-33-49c-18-26-80-113-138-193-57-80-125-174-150-209s-60-80-77-100-36-46-42-58c-7-13-37-30-79-46-144-52-127-52-212 0-63 39-205 139-356 250-16 12-56 40-87 62-87 60-137 110-158 159-25 56-25 56 7 102 26 36 29 37 63 28 19-6 40-13 45-17 6-4 66-29 135-56 157.31-56.252 366.69-131.26 494-175 16 0 74 55 179 168 55 59 66 76 58 90-5 10-54 52-108 93s-100 77-103 80-79 61-170 129-167 127-170 130-34 27-70 54c-36 28-126 99-200 160-74 60-136 110-137 111-2 1 30 92 55 156 12 30-18 25 318 53 99 8 191 17 205 21 13 3 110 10 214 16 105 6 228 14 275 18s112 8 145 9l61 2z"/>
 </g>
</svg>
