<?xml version="1.0" standalone="no"?>
<!DOCTYPE svg PUBLIC "-//W3C//DTD SVG 20010904//EN"
 "http://www.w3.org/TR/2001/REC-SVG-20010904/DTD/svg10.dtd">
<svg version="1.0" xmlns="http://www.w3.org/2000/svg"
 width="700.000000pt" height="700.000000pt" viewBox="0 0 700.000000 700.000000"
 preserveAspectRatio="xMidYMid meet">
<metadata>
Created by potrace 1.11, written by Peter Selinger 2001-2013
</metadata>
<g transform="translate(0.000000,700.000000) scale(0.100000,-0.100000)"
fill="#000000" stroke="none">
<path d="M3209 6997 c-2 -3 -38 -8 -79 -11 -215 -20 -647 -116 -785 -176 -11
-4 -69 -27 -130 -50 -116 -45 -355 -159 -440 -210 -27 -17 -59 -35 -70 -40
-23 -11 -58 -33 -65 -40 -3 -3 -51 -36 -108 -74 -56 -37 -108 -73 -115 -80 -7
-6 -30 -24 -52 -40 -220 -162 -516 -468 -696 -719 -136 -191 -289 -459 -368
-647 -13 -30 -31 -73 -41 -95 -23 -51 -93 -258 -120 -355 -11 -41 -22 -82 -25
-90 -11 -39 -65 -323 -70 -366 -3 -27 -7 -60 -10 -73 -19 -97 -27 -540 -12
-717 7 -91 38 -299 57 -384 5 -25 12 -57 14 -71 8 -50 88 -334 106 -374 4 -11
25 -65 46 -120 258 -691 784 -1321 1434 -1718 700 -427 1538 -596 2338 -471
283 44 558 121 807 224 110 45 364 172 407 201 14 11 29 19 32 19 3 0 46 26
94 57 48 32 91 60 97 62 5 2 14 8 20 13 5 5 44 33 85 64 575 423 1003 1009
1238 1696 23 65 39 118 36 118 -3 0 0 8 5 18 6 11 12 30 15 43 3 13 19 82 36
154 17 71 32 143 35 160 2 16 9 62 14 100 29 188 35 280 35 515 0 185 -7 321
-18 390 -3 14 -7 48 -10 75 -9 75 -15 110 -37 220 -12 55 -22 107 -24 115 -68
336 -266 792 -493 1135 -177 266 -467 583 -708 775 -422 336 -884 562 -1392
681 -140 33 -142 33 -317 61 -105 17 -191 21 -446 25 -173 2 -317 2 -320 0z"/>
</g>
</svg>
