<?xml version="1.0" encoding="UTF-8" standalone="no"?>
<!-- Created with Inkscape (http://www.inkscape.org/) -->

<svg
   xmlns:dc="http://purl.org/dc/elements/1.1/"
   xmlns:cc="http://creativecommons.org/ns#"
   xmlns:rdf="http://www.w3.org/1999/02/22-rdf-syntax-ns#"
   xmlns:svg="http://www.w3.org/2000/svg"
   xmlns="http://www.w3.org/2000/svg"
   xmlns:sodipodi="http://sodipodi.sourceforge.net/DTD/sodipodi-0.dtd"
   xmlns:inkscape="http://www.inkscape.org/namespaces/inkscape"
   width="143mm"
   height="131mm"
   viewBox="0 0 143 131"
   version="1.1"
   id="svg8"
   inkscape:version="0.92.4 (5da689c313, 2019-01-14)"
   sodipodi:docname="BRB logo.svg">
  <defs
     id="defs2" />
  <sodipodi:namedview
     id="base"
     pagecolor="#ffffff"
     bordercolor="#666666"
     borderopacity="1.0"
     inkscape:pageopacity="0.0"
     inkscape:pageshadow="2"
     inkscape:zoom="1"
     inkscape:cx="229.12335"
     inkscape:cy="268.95432"
     inkscape:document-units="mm"
     inkscape:current-layer="layer1"
     showgrid="false"
     inkscape:window-width="1366"
     inkscape:window-height="705"
     inkscape:window-x="-8"
     inkscape:window-y="-8"
     inkscape:window-maximized="1" />
  <metadata
     id="metadata5">
    <rdf:RDF>
      <cc:Work
         rdf:about="">
        <dc:format>image/svg+xml</dc:format>
        <dc:type
           rdf:resource="http://purl.org/dc/dcmitype/StillImage" />
        <dc:title />
      </cc:Work>
    </rdf:RDF>
  </metadata>
  <g
     inkscape:label="Layer 1"
     inkscape:groupmode="layer"
     id="layer1"
     transform="translate(0,-166)"
     style="display:inline">
    <path
       inkscape:connector-curvature="0"
       id="path4035"
       d="m 79.022071,247.9697 c -1.179505,-0.86247 -6.085734,-1.44928 -13.314336,-1.5063 -0.410934,-0.003 -0.775996,0.009 -1.205093,0.008 l -6.179907,-0.007 v -4.82298 l 8.164282,0.13514 c 8.91997,0.14765 10.44066,0.34747 13.360326,1.75109 4.178951,2.00901 7.003669,6.00325 11.710292,16.55871 0.909418,2.03953 2.698843,6.02997 3.976497,8.86762 1.277657,2.83766 3.171813,7.06438 4.20923,9.39271 l 1.886218,4.23371 h 12.58415 l 0.298,4.233 h -12.86227 l -3.638955,-8.06965 c -2.001422,-4.43839 -4.38019,-9.73667 -5.286147,-11.77396 -4.169326,-9.37585 -6.7451,-13.80889 -9.511893,-16.37046 -1.392881,-1.28956 -2.107219,-1.75974 -2.107219,-1.38696 0,0.0561 1.057418,2.8838 1.778159,6.28385 0.720741,3.40004 2.656817,12.43268 4.267716,20.07253 3.481825,16.51287 3.137718,17.20928 3.293756,17.36532 0.06655,0.0666 1.576944,-0.65181 2.213108,-0.79528 6.01698,-1.36018 19.193355,-3.65535 20.726425,-3.87346 3.91784,-0.55738 11.7269,-3.31662 14.87241,-4.82475 5.079,-2.43514 8.96005,-5.45008 11.52063,-10.12079 0.6296,-1.14844 1.18119,-3.52598 0.7089,-0.79375 -0.73292,3.60436 -2.75024,7.2296 -5.59504,10.05457 -3.61299,3.5878 -8.09377,6.01367 -14.12024,7.64463 C 118.94307,290.71995 89.875509,297 89.413692,297 Z m -32.577242,34.7617 h 11.877906 v 5.29854 l -11.877902,-0.0165 z m 82.744881,-17.48209 c -0.29644,-5.68294 -2.2628,-10.61717 -5.4231,-13.60829 -2.42074,-2.29114 -6.52237,-3.53233 -10.62441,-3.21502 -2.51197,0.19431 -13.327908,2.3819 -13.544568,2.71693 -0.598037,-0.55052 -2.907766,-2.86755 -1.694867,-3.73203 0.10612,-0.0756 0.37049,-0.009 0.53185,-0.0623 0.2915,-0.0216 3.107625,-0.6914 6.298465,-1.36717 7.71382,-1.63369 11.27117,-2.01911 14.23968,-1.45817 4.54089,0.85805 6.90639,3.32151 8.94075,7.57753 1.66026,3.47338 2.51749,6.29481 2.525,10.66806 0.005,2.80975 -0.25946,4.3908 -0.57493,5.09323 -1.77079,3.96621 -0.67387,1.34765 -0.67387,-2.61275 z M 0,252.4644 25.552735,166.1194 c 0.512125,0.0911 23.731774,6.80903 27.71337,8.01553 3.569277,1.08155 6.706135,2.50186 9.396317,4.25447 2.434472,1.49984 5.567508,4.46252 7.040822,6.95573 l 1.802358,2.58796 -2.337184,-2.5272 c -2.102197,-2.27311 -4.257167,-3.54682 -7.510047,-5.09519 -3.320857,-1.58072 -3.811929,-1.74417 -15.797152,-5.25802 -16.501777,-4.83802 -17.191682,-4.39897 -17.191682,-4.39897 L 2.7655533,256.3871 Z m 38.093256,3.2296 c -1.173626,-0.12336 -4.00074,-0.5719 -5.955812,-1.13967 -14.667857,-4.25965 -15.782633,-4.67744 -15.782633,-5.05296 0,-0.58366 0.775764,-2.60019 0.775764,-2.60019 0,0 3.864456,1.10773 8.153865,2.34933 8.821092,2.55332 11.620146,3.03832 14.888319,2.57972 2.106044,-0.29553 4.680059,-1.31713 5.675977,-2.25275 l 0.595999,-0.56 9.5e-5,5.71039 c 0,0 -1.149106,0.52159 -2.222384,0.75108 -2.092002,0.4473 -3.830702,0.45665 -6.12919,0.21505 z m 53.289222,-16.1114 c -0.482135,-0.37993 -1.485897,-1.11159 -2.24069,-1.52486 l -1.289666,-0.83408 0.917773,-0.49517 c 4.363167,-1.51496 8.28888,-4.80935 10.545837,-8.89807 1.697018,-3.07434 3.068988,-7.7789 3.144568,-11.06217 -0.0942,-0.60998 -0.19026,-6.14235 0.29601,-2.06647 0.0513,0.6192 0.2292,2.226 0.1967,4.24544 -0.0732,4.53623 -0.1664,5.47893 -0.77166,7.80521 -1.00216,3.85171 -2.738248,7.12874 -5.115266,9.65553 -1.588596,1.68869 -4.216605,3.87977 -4.712323,3.86644 -0.06002,-0.002 -0.489146,-0.31187 -0.971283,-0.6918 z m 32.188392,-1.801 c -0.14552,-0.0501 -1.00112,-0.2534 -1.86092,-0.35065 l -1.53015,-0.27609 1.31206,-0.86036 c 3.07581,-1.68201 5.20268,-3.52806 6.45801,-5.93646 0.31962,-0.61321 1.223,-4.04493 0.80034,-1.01147 0,0 -0.96851,3.22099 -1.84977,4.66716 -0.78295,1.28485 -2.52051,3.86337 -2.90577,3.83858 -0.17852,-0.0115 -0.27828,-0.0206 -0.4238,-0.0707 z m -48.365694,-7.52344 c -0.07513,-0.32743 -0.941534,-4.42857 -1.925339,-9.11366 l -1.838343,-8.74158 0.701312,-1.21719 0.610359,-1.6058 0.651574,3.24498 c 0.335629,1.69378 0.774644,3.79398 0.975595,4.6671 1.150348,4.99827 3.119922,13.15138 2.99869,13.34754 -0.729508,0.12225 -1.738726,2.04486 -2.173848,-0.58139 z m 42.871784,-4.69636 c -0.55703,-7.80692 -5.05895,-12.78515 -11.7408,-12.98298 -5.67398,-0.0319 -7.134448,0.62499 -10.67883,1.3694 -2.692135,0.56546 -4.966819,1.02859 -5.054854,1.02918 l -3.179794,0.68797 c -1.021247,0.23228 -2.258355,0.47547 -2.258355,0.47547 0,0 -0.120297,-0.93728 -0.30636,-1.82889 -0.250745,-1.20158 -0.506359,-1.82995 -0.282543,-1.90708 0.166084,-0.0572 4.678989,-0.89912 9.626698,-1.93151 11.694658,-2.44021 14.794508,-2.68524 18.727068,-0.70009 2.78772,1.40723 4.60527,4.55317 5.64828,8.3802 0.62685,2.30002 1.21736,7.09443 0.0766,8.73125 l -0.41664,0.92604 z m -58.479519,-1.41617 c -0.586459,-0.40274 -1.117751,-0.66551 -1.323735,-0.92944 -0.320886,-0.41114 -0.100051,-0.75432 0.02367,-1.08877 -0.01155,-0.2864 -0.261621,-0.72437 -0.173543,-0.69712 0.327459,0.10132 2.130341,2.02773 2.234798,2.16728 1.577005,2.13928 1.918125,3.4616 1.918125,3.4616 0,0 -1.977557,-2.41461 -2.67931,-2.91355 z m -31.136706,-15.66223 0.744,-2.724 17.207,4.903 3.54e-4,2.936 z m 29.862,-3.01011 c 0,0 0.486051,-0.89368 0.81981,-1.59139 0.566529,-1.0313 0.834887,-2.01811 0.933428,-2.36326 0.07485,-0.2911 0.124011,-0.6222 0.137835,-0.71924 h -1.891073 c 0.0095,-1.35915 0,-4.077 0,-4.077 l 2.674213,-1.8e-4 v -1.39081 c 0,-1.76677 -2.292356,-4.56656 -3.054033,-5.45245 -0.33029,-0.38415 2.120231,1.24083 2.868637,2.00428 1.054346,0.73036 1.525328,2.31909 1.938676,3.16395 0.642474,1.31317 0.999911,1.92792 1.085345,4.23589 0.08599,2.32307 -0.0672,3.10958 -0.674418,5.22883 -0.833911,2.9097 -2.241532,5.17147 -3.732075,6.61765 l -1.106345,1.10184 z m 18.772619,-4.19924 c -0.773386,-0.15258 -2.157384,-0.28027 -2.29834,-0.37011 -0.140957,-0.0899 0.23963,-1.21177 0.178781,-2.59422 -0.601474,-2.16955 -0.331797,-1.60479 0.736059,-1.5875 1.453335,0 4.841401,0.88468 6.592953,1.72153 1.979584,0.9458 5.105325,3.28062 4.747407,3.6249 -0.266829,0.25665 -3.555995,0.78136 -4.606487,0.44798 -1.766811,-0.46103 -3.430461,-0.9499 -5.350373,-1.24258 z"
       style="fill:#a4a4a4;stroke-width:0.26458335;fill-opacity:1"
       sodipodi:nodetypes="cscccsccsscccccscsssccccscsccccccccccscscccsccsccsscccsscccccscsccccccccccccccssccccccccscccccccscccccccccccssccccccscsccccscccscccccccccccccccccccccsccc" />
    <path
       inkscape:connector-curvature="0"
       id="path4033"
       d="m 90.263129,292.56754 c -0.07601,-0.25467 -0.501292,-2.22701 -0.945078,-4.38298 -0.443788,-2.15597 -1.883916,-9.00207 -3.200284,-15.21354 -1.316368,-6.21148 -2.982701,-14.07545 -3.702957,-17.47549 -0.72026,-3.40005 -1.309564,-6.22778 -1.309564,-6.28385 0,-0.37278 0.714338,0.0974 2.107219,1.38696 2.766793,2.56157 5.342567,6.99461 9.511893,16.37046 0.905957,2.03729 3.284725,7.33557 5.286147,11.77396 l 3.638955,8.07034 c 0,2e-5 12.86227,0 12.86227,0 l -0.298,-4.233 c 0,0 -0.56244,-1.69231 -1.13026,-2.83768 -0.55568,-1.11065 -0.80919,-1.6809 -0.80919,-1.6809 0,0 0.27012,-0.0157 0.51482,-0.0378 1.1759,-0.0962 5.92514,-1.25366 7.55281,-1.84079 4.43208,-1.59875 7.44562,-4.1836 8.95359,-7.67992 0.87176,-2.02124 0.8567,-3.677 0.88101,-5.76758 -0.0106,-4.37345 -0.60472,-7.16576 -2.263,-10.63499 -2.73243,-5.71643 -7.59881,-8.2359 -14.54841,-7.53212 -2.25234,0.22809 -13.30212,2.31678 -15.196945,2.88384 -0.0696,0.0266 -0.20744,0.0452 -0.27479,0.0766 0,0 -0.51033,-0.78914 -1.520676,-2.41346 -0.886087,-1.35489 -2.200672,-2.93404 -2.852084,-3.6004 l -1.166844,-1.2408 1.611772,-1.10755 c 0.828593,-0.57057 1.571371,-1.32779 1.731463,-1.43008 0.160089,-0.10228 2.976599,-0.52345 6.178044,-1.18857 6.75359,-1.40309 9.24199,-2.16669 11.48957,-3.52571 4.27893,-2.5873 6.0834,-6.03335 5.75496,-10.99044 -0.38593,-5.82495 -2.73965,-10.16791 -6.55417,-12.09348 -3.94279,-1.99032 -6.56792,-1.91167 -18.427713,0.55206 -5.057783,1.05069 -9.593508,2.02498 -9.593508,2.02498 0,0 0.650348,2.95228 1.365183,6.29926 0.922542,4.3195 1.448664,6.42701 1.448664,6.42701 0,0 -0.43575,0.1994 -0.488888,0.29965 -0.482556,0.91032 -2.970932,2.81751 -4.83784,3.70792 -1.585195,0.75605 -4.485369,1.63672 -4.743726,1.37836 -0.07511,-0.0751 -0.69815,-2.77445 -1.352372,-5.88777 -0.654222,-3.11332 -1.352748,-6.37496 -1.552281,-7.24809 -0.199533,-0.87312 -0.634381,-2.93188 -0.96633,-4.57501 l -0.663424,-3.33701 0.490259,-1.41722 c 0.312214,-0.90254 0.688422,-2.09586 0.842119,-2.70024 0.09431,-0.37086 -0.239602,-0.69875 -0.004,-0.84648 0.580457,-0.36403 2.343125,-0.64419 8.611239,-1.99168 0.363803,-0.0782 2.387865,-0.47804 4.497917,-0.88853 2.110052,-0.41048 6.158177,-1.23972 8.995834,-1.84274 6.883647,-1.46284 8.494167,-1.65352 12.699997,-1.50365 5.40214,0.1925 9.03268,1.34246 12.65348,4.00794 5.12406,3.77212 8.27212,11.02138 8.33588,19.19566 0.056,7.17838 -2.42211,11.58407 -8.33438,14.81721 l -1.36171,0.74466 1.56326,0.17616 c 10.60135,1.19464 17.48477,8.26809 19.83013,20.3776 0.64066,3.30787 0.58766,8.02361 -0.12422,11.05158 -1.49694,6.36719 -6.21438,11.84479 -13.00502,15.10058 -3.14551,1.50813 -11.14166,3.84642 -15.0595,4.4038 -1.51846,0.21603 -15.289906,3.09356 -21.614559,4.51636 -0.806656,0.18147 -1.371987,0.28101 -1.371987,0.28101 0,0 -0.06507,-0.26106 -0.134739,-0.49447 z"
       style="fill:#3750e2;stroke-width:0.26458335"
       sodipodi:nodetypes="csssscsccccccccccscccccccccscsscscsscssscssscsssscccscsccsccc" />
    <path
       inkscape:connector-curvature="0"
       id="path4031"
       d="M 39.565662,266.13101 C 37.044884,265.88073 33.306713,265.144 30.569828,264.3581 18.179782,260.80026 2.7572851,256.3871 2.7572851,256.3871 L 28.305784,170.05849 c 0.0594,-0.0594 1.813507,0.38907 3.898005,0.99661 13.441776,3.91772 23.753851,6.96763 25.166805,7.44336 2.383637,0.80255 6.69071,2.9045 8.492953,4.14476 4.734219,3.25795 7.635487,6.87836 8.896425,13.39177 0.720112,3.71977 -0.120626,9.0435 -2.105795,13.92162 -2.46855,6.06594 -6.914224,10.05189 -12.206502,10.94425 l -2.12494,0.33121 v -9.00067 l 1.1852,-1.20603 c 1.584457,-1.63389 2.646611,-3.63704 3.488788,-6.5796 0.606189,-2.11803 0.61908,-2.84095 0.6985,-5.16269 -0.218302,-2.29049 -0.300948,-2.92055 -0.964658,-4.28397 -1.994612,-4.09742 -6.84127,-7.01071 -14.943595,-8.98249 -0.417783,-0.11304 -0.866405,-0.23705 -1.342235,-0.36922 -4.279921,-1.18881 -10.462643,-3.01492 -10.462643,-3.01492 l -7.521357,25.85092 17.984,5.115 v 10.90166 l -1.345845,-0.53484 c -1.691212,-0.66661 -19.387602,-5.89578 -19.517695,-5.76569 l -9.151213,31.25874 c 0,0 3.35096,1.18167 15.932191,4.96685 5.381865,1.56306 9.758524,1.79253 12.985245,0.68084 l 1.097412,-0.37809 v 11.24148 l -1.389063,0.16684 c -1.396936,0.16779 -3.770503,0.16555 -5.490104,-0.005 z m 18.757073,-19.66712 h 3.706616 l 3.678384,-4.9e-4 -0.341549,1.135 c -1.502808,4.99397 -3.501834,8.83497 -6.076061,11.67572 l -0.96739,1.03627 z m 0,-23.31937 0.793216,0.54464 c 1.295138,0.92222 3.416388,3.41334 4.391859,5.15765 0.510775,0.91335 0.928682,1.73849 0.928682,1.83365 0,0.0952 -1.369219,0.17301 -3.042708,0.17301 h -3.071049 z"
       style="fill:#eb0204;stroke-width:0.26458335"
       sodipodi:nodetypes="cccccccssccccccscscccccccccccccccccsscccccsscc" />
    <path
       inkscape:connector-curvature="0"
       id="path4037"
       d="m 51.459931,187.04652 c 2.239126,0.67362 4.345282,1.69465 5.075181,2.09872 3.011259,1.66701 3.422812,2.22201 4.168861,4.35018 0,0 0.259203,1.05008 0.292762,1.83774 v 1.38924 h -2.674 v 34.13107 h 9.035356 c 9.69418,0 11.588594,-0.18923 14.373754,-1.43579 4.76699,-2.13355 8.080171,-6.97067 8.545553,-12.47618 0.09427,-1.11526 0.143924,-1.92534 0.143924,-1.92534 0.239895,-0.0504 0.434724,-0.10183 0.664974,-0.14129 2.13143,-0.54061 7.152509,-1.60347 9.955464,-2.03061 0.23376,-0.0356 0.45501,-0.08 0.65494,-0.10608 0.14401,-0.0188 0.21855,-0.0233 0.41107,-0.0438 0.20918,-0.0214 0.4352,-0.0123 0.4352,-0.0123 0,0 0.0158,0.24402 0.0335,0.37839 0.14832,1.15671 -0.0787,5.1474 -0.45059,7.15998 -1.32745,7.18442 -5.0164,12.51056 -10.717792,15.47443 -0.937133,0.48717 -2.120599,1.03046 -2.629922,1.2073 l -0.926041,0.32154 1.344355,0.73609 c 3.017476,1.65219 5.441966,4.22684 8.297115,8.81099 1.792217,2.87752 3.643915,6.76828 9.927675,20.85982 2.20526,4.71655 6.15677,12.60867 6.79244,14.94984 h -12.58414 l -1.886218,-4.23427 c -1.037407,-2.32833 -2.93156,-6.55505 -4.209217,-9.39271 -1.277654,-2.83765 -3.067079,-6.82809 -3.976497,-8.86762 -2.428036,-5.44532 -3.857876,-8.19465 -5.673225,-10.90863 -1.885879,-2.81941 -3.720428,-4.53637 -6.037067,-5.65008 -2.919558,-1.40357 -4.440491,-1.60293 -13.358686,-1.75107 l -8.165925,-0.13503 v 41.09041 c 0,0 -11.877906,0.009 -11.877891,0 -1.5e-5,0.009 -1.09e-4,-97.084 -1.09e-4,-97.084 2.461194,0.60328 3.543063,0.91664 5.015196,1.39912 z m 34.045905,13.4966 c -0.708371,-0.65185 -2.137121,-1.59093 -3.175,-2.08685 -1.769663,-0.84558 -5.068105,-1.61748 -6.613901,-1.73405 l -0.858862,-0.0648 c 0,0 -0.177844,-1.00599 -0.36717,-1.85698 -0.519295,-2.33414 -1.721484,-5.1607 -3.185233,-7.09942 -0.589449,-0.78072 -1.182137,-1.75039 -1.182137,-1.75039 0.05846,-0.0393 2.055349,-0.0754 4.403912,0.0251 11.038727,0.47193 18.520575,3.30536 22.8581,9.06169 1.57148,2.0855 2.521947,4.09668 2.521947,4.09668 -0.10705,0.0479 -2.664667,0.54103 -5.498091,1.13332 -2.833425,0.59228 -5.78318,1.18579 -6.252762,1.27939 -0.64735,0.13495 -1.183132,0.23913 -1.227833,0.23335 -0.0447,-0.006 -0.714596,-0.58517 -1.42297,-1.23702 z"
       style="fill:#fdfdfd;stroke-width:0.26458335"
       sodipodi:nodetypes="cssccccsssccssccccsccscccccscccsccccccsscssscccscccc" />
  </g>
</svg>
